<mxfile host="app.diagrams.net" agent="Mozilla/5.0 (Windows NT 10.0; Win64; x64) AppleWebKit/537.36 (KHTML, like Gecko) Chrome/134.0.0.0 Safari/537.36 Edg/134.0.0.0" version="26.1.1">
  <diagram id="C5RBs43oDa-KdzZeNtuy" name="Page-1">
    <mxGraphModel dx="1097" dy="575" grid="1" gridSize="10" guides="1" tooltips="1" connect="1" arrows="1" fold="1" page="1" pageScale="1" pageWidth="827" pageHeight="1169" math="0" shadow="0">
      <root>
        <mxCell id="WIyWlLk6GJQsqaUBKTNV-0" />
        <mxCell id="WIyWlLk6GJQsqaUBKTNV-1" parent="WIyWlLk6GJQsqaUBKTNV-0" />
        <mxCell id="esq4DEs6tMJ4NNBgiMNg-6" style="edgeStyle=orthogonalEdgeStyle;rounded=0;orthogonalLoop=1;jettySize=auto;html=1;exitX=0.5;exitY=1;exitDx=0;exitDy=0;entryX=0.5;entryY=0;entryDx=0;entryDy=0;shadow=1;" edge="1" parent="WIyWlLk6GJQsqaUBKTNV-1" source="esq4DEs6tMJ4NNBgiMNg-0" target="esq4DEs6tMJ4NNBgiMNg-3">
          <mxGeometry relative="1" as="geometry" />
        </mxCell>
        <mxCell id="esq4DEs6tMJ4NNBgiMNg-0" value="&lt;b&gt;System&lt;/b&gt;" style="ellipse;whiteSpace=wrap;html=1;shadow=1;" vertex="1" parent="WIyWlLk6GJQsqaUBKTNV-1">
          <mxGeometry x="50" y="20" width="60" height="40" as="geometry" />
        </mxCell>
        <mxCell id="esq4DEs6tMJ4NNBgiMNg-8" style="edgeStyle=orthogonalEdgeStyle;rounded=0;orthogonalLoop=1;jettySize=auto;html=1;exitX=1;exitY=0.5;exitDx=0;exitDy=0;entryX=0.25;entryY=1;entryDx=0;entryDy=0;shadow=1;" edge="1" parent="WIyWlLk6GJQsqaUBKTNV-1" source="esq4DEs6tMJ4NNBgiMNg-3" target="esq4DEs6tMJ4NNBgiMNg-7">
          <mxGeometry relative="1" as="geometry" />
        </mxCell>
        <mxCell id="esq4DEs6tMJ4NNBgiMNg-3" value="&lt;b&gt;&lt;font style=&quot;font-size: 10px;&quot;&gt;Login by&amp;nbsp;&lt;/font&gt;&lt;/b&gt;&lt;div&gt;&lt;b&gt;&lt;font style=&quot;font-size: 10px; color: rgb(255, 179, 102);&quot;&gt;Google Education&lt;/font&gt;&lt;/b&gt;&lt;/div&gt;" style="shape=process;whiteSpace=wrap;html=1;backgroundOutline=1;size=0;shadow=1;" vertex="1" parent="WIyWlLk6GJQsqaUBKTNV-1">
          <mxGeometry x="25" y="100" width="110" height="50" as="geometry" />
        </mxCell>
        <mxCell id="esq4DEs6tMJ4NNBgiMNg-7" value="&lt;b&gt;&lt;font style=&quot;font-size: 10px;&quot;&gt;Checking&lt;/font&gt;&lt;/b&gt;&lt;div&gt;&lt;b&gt;&lt;font style=&quot;font-size: 10px;&quot;&gt;Role/ Permission&lt;/font&gt;&lt;/b&gt;&lt;/div&gt;" style="shape=parallelogram;perimeter=parallelogramPerimeter;whiteSpace=wrap;html=1;fixedSize=1;shadow=1;" vertex="1" parent="WIyWlLk6GJQsqaUBKTNV-1">
          <mxGeometry x="170" y="20" width="120" height="50" as="geometry" />
        </mxCell>
        <mxCell id="esq4DEs6tMJ4NNBgiMNg-12" value="Admin" style="label;whiteSpace=wrap;html=1;image=img/clipart/Gear_128x128.png" vertex="1" parent="WIyWlLk6GJQsqaUBKTNV-1">
          <mxGeometry x="80" y="240" width="140" height="60" as="geometry" />
        </mxCell>
        <mxCell id="esq4DEs6tMJ4NNBgiMNg-13" value="Clients" style="label;whiteSpace=wrap;html=1;image=img/clipart/Gear_128x128.png" vertex="1" parent="WIyWlLk6GJQsqaUBKTNV-1">
          <mxGeometry x="550" y="240" width="140" height="60" as="geometry" />
        </mxCell>
      </root>
    </mxGraphModel>
  </diagram>
</mxfile>
